Coordinates
version=1
nRows=11
nColumns=40
inDegrees=yes

Units are S.I. units (second, meters, Newtons, ...)
Angles are in degrees.

endheader
time	pelvis_tilt	pelvis_list	pelvis_rotation	pelvis_tx	pelvis_ty	pelvis_tz	hip_flexion_r	hip_adduction_r	hip_rotation_r	knee_angle_r	knee_angle_r_beta	ankle_angle_r	subtalar_angle_r	mtp_angle_r	hip_flexion_l	hip_adduction_l	hip_rotation_l	knee_angle_l	knee_angle_l_beta	ankle_angle_l	subtalar_angle_l	mtp_angle_l	lumbar_extension	lumbar_bending	lumbar_rotation	arm_flex_r	arm_add_r	arm_rot_r	elbow_flex_r	pro_sup_r	wrist_flex_r	wrist_dev_r	arm_flex_l	arm_add_l	arm_rot_l	elbow_flex_l	pro_sup_l	wrist_flex_l	wrist_dev_l
     22.22000000	     -1.85779965	     -6.46581323	     -1.17921560	      1.01211022	      0.92082307	      0.55845693	     12.50020351	      8.45841324	     -9.09852699	     23.93982036	     23.93982036	     15.84782022	     -3.32314946	     -2.04929754	     15.87026101	    -16.94809187	     -1.75545873	     54.06284521	     54.06284521	     16.36482873	    -18.98313307	     16.44559867	     -8.84491136	      6.51305860	      2.29241131	     12.24638041	    -15.22816085	     -5.67498638	     29.57663115	     45.95971525	      0.00000000	      0.00000000	     13.24622344	    -12.24309820	     -2.05072545	     50.10577358	     45.79089384	      0.00000000	      0.00000000
     22.24400000	     -1.55565793	     -6.45050082	     -0.18235625	      1.01010017	      0.91899133	      0.55985596	     12.65591767	      8.60582942	     -9.07363052	     25.02144978	     25.02144978	     16.35510469	     -5.16333818	     -2.09083805	     18.23561019	    -17.11471576	     -0.77444263	     55.49576684	     55.49576684	     16.73966372	    -19.19323077	     17.02007568	     -9.06039807	      6.36959209	      2.01066051	     15.61330665	    -15.10304469	     -5.77343656	     31.18936950	     45.93115105	      0.00000000	      0.00000000	     10.16234178	    -11.41355573	     -1.20748397	     47.57839407	     45.68004049	      0.00000000	      0.00000000
     22.26800000	     -1.20710956	     -6.44464736	      0.85521217	      1.00797099	      0.91736522	      0.56123648	     12.67170566	      8.85569567	     -8.85781313	     25.91370693	     25.91370693	     16.78970362	     -7.33621053	     -1.71215159	     20.65440709	    -17.12471626	      0.37263461	     56.68124764	     56.68124764	     17.75161366	    -19.31329456	     19.51364393	     -9.34943060	      6.23632066	      2.12611106	     19.05752418	    -15.21672266	     -5.60273641	     32.40867478	     45.90759613	      0.00000000	      0.00000000	      7.91882884	    -10.47041474	      0.39472174	     43.09694121	     45.54292139	      0.00000000	      0.00000000
     22.29200000	     -0.89250512	     -6.36582765	      1.91454316	      1.00583846	      0.91590839	      0.56237699	     12.67028086	      8.94299425	     -8.95055367	     26.74586127	     26.74586127	     17.26242779	     -8.93919857	     -1.40839034	     22.95588235	    -16.95168483	      1.43475916	     57.19980664	     57.19980664	     18.23408122	    -19.40443252	     20.63412894	     -9.63632410	      6.05134310	      2.15316546	     22.53364044	    -15.37328926	     -5.57654513	     34.14250335	     45.86954006	      0.00000000	      0.00000000	      5.53776061	     -9.61221299	      1.85520686	     38.90465968	     45.41268985	      0.00000000	      0.00000000
     22.31600000	     -0.64684085	     -6.20684690	      2.98019097	      1.00370093	      0.91476775	      0.56324523	     12.63645175	      8.89113599	     -9.23009667	     27.40583298	     27.40583298	     17.62629960	    -10.21216551	     -1.30688200	     25.09711361	    -16.56854768	      2.38510581	     56.97096802	     56.97096802	     18.27238788	    -19.46267880	     20.81676561	     -9.89845600	      5.78026292	      1.95260364	     26.11224683	    -15.38971444	     -5.70715082	     36.08917479	     45.82736372	      0.00000000	      0.00000000	      2.65371065	     -8.95229373	      2.62129794	     36.13135373	     45.29688094	      0.00000000	      0.00000000
     22.34000000	     -0.42499245	     -6.01238744	      4.00828490	      1.00161473	      0.91423184	      0.56382924	     12.43343017	      8.79764129	     -9.54974086	     27.72510924	     27.72510924	     17.89837112	    -11.26289845	     -1.05277909	     26.93320252	    -16.01207232	      3.23401652	     55.93867267	     55.93867267	     18.15392659	    -19.48886769	     21.01370254	    -10.14480223	      5.50125157	      1.93955446	     29.62426362	    -15.54461917	     -5.79582946	     37.97202707	     45.78470942	      0.00000000	      0.00000000	      0.23792609	     -8.32520065	      3.50786391	     32.94021686	     45.16652498	      0.00000000	      0.00000000
     22.36400000	     -0.31387685	     -5.75473495	      4.98342311	      0.99952178	      0.91415571	      0.56412959	     12.19255818	      8.58190733	     -9.96804783	     27.79375738	     27.79375738	     18.11074193	    -11.87585101	     -0.79316337	     28.50851404	    -15.25846873	      3.99579719	     54.13078856	     54.13078856	     17.72748297	    -19.47619415	     20.96470498	    -10.32561396	      5.15174219	      2.09135819	     32.93020446	    -15.78215157	     -5.88486448	     39.92172154	     45.73781970	      0.00000000	      0.00000000	     -1.95956575	     -7.82611522	      4.37113000	     29.93488727	     45.03248267	      0.00000000	      0.00000000
     22.38800000	     -0.27951876	     -5.44910107	      5.88749778	      0.99745485	      0.91459864	      0.56411841	     11.88170759	      8.25691191	    -10.53587322	     27.62300083	     27.62300083	     18.24320568	    -12.11216305	     -0.57255069	     29.70499897	    -14.38610555	      4.57758165	     51.52328727	     51.52328727	     16.92321446	    -19.43134388	     20.61470665	    -10.44990841	      4.76377993	      2.36411087	     36.09206849	    -16.13453675	     -5.98896319	     42.01225202	     45.68506224	      0.00000000	      0.00000000	     -4.02850062	     -7.47457547	      5.10408042	     27.55812832	     44.90545823	      0.00000000	      0.00000000
     22.41200000	     -0.50464091	     -5.27775188	      6.68537782	      0.99530373	      0.91503845	      0.56391897	     11.79697445	      8.03060897	    -11.12102167	     27.32117088	     27.32117088	     18.22225907	    -12.23901918	     -0.46382621	     30.85568063	    -13.57675289	      5.13088018	     48.40537339	     48.40537339	     16.04414338	    -19.27073903	     20.82490088	    -10.25974447	      4.52175188	      3.33801768	     39.00969022	    -17.22561769	     -6.21468804	     43.28918495	     45.66824289	      0.00000000	      0.00000000	     -6.02012659	     -7.28536426	      5.24577225	     26.66561357	     44.85246656	      0.00000000	      0.00000000
     22.43600000	     -0.53330830	     -4.77547957	      7.48126963	      0.99345266	      0.91645407	      0.56320691	     11.17747560	      7.40003190	    -11.92339828	     26.61806091	     26.61806091	     18.29872290	    -11.64536222	     -0.34937188	     31.09281014	    -12.41888613	      5.47336092	     44.44529854	     44.44529854	     14.17840216	    -19.16331733	     19.38742144	    -10.40508621	      4.02469163	      2.83637902	     42.02631722	    -16.66808755	     -6.06826388	     46.63246345	     45.55421972	      0.00000000	      0.00000000	     -8.12049701	     -7.19931194	      6.02239214	     24.82019510	     44.69782841	      0.00000000	      0.00000000
     22.46000000	     -0.75761027	     -4.53207295	      8.14556318	      0.99168825	      0.91759201	      0.56259596	     10.79970698	      7.02804601	    -12.74892032	     25.92051240	     25.92051240	     18.27196589	    -10.98000074	     -0.26827357	     31.08982767	    -11.71337162	      5.51442115	     39.85415064	     39.85415064	     10.54454795	    -18.90036486	     13.57836132	    -10.31796589	      3.71711970	      4.05411181	     43.22708072	    -18.25399474	     -5.36706946	     52.06271175	     45.39840420	      0.00000000	      0.00000000	     -9.82456204	     -8.32777275	     13.84779161	     25.01883503	     43.52600038	      0.00000000	      0.00000000
